<svg width="126" height="126" viewBox="0 0 126 126" fill="none" xmlns="http://www.w3.org/2000/svg">
<path d="M0 63C0 28.2061 28.2061 0 63 0H126V63C126 97.7939 97.7939 126 63 126C28.2061 126 0 97.7939 0 63Z" fill="#64A70B"/>
<path d="M38.1927 40.485C38.7227 40.485 39.1877 40.615 39.5877 40.875C39.9977 41.135 40.3127 41.5 40.5327 41.97C40.7627 42.44 40.8777 42.975 40.8777 43.575C40.8777 44.475 40.6377 45.2 40.1577 45.75C39.6877 46.3 39.0627 46.575 38.2827 46.575H37.0077C36.9577 46.575 36.9327 46.6 36.9327 46.65V50.82C36.9327 50.87 36.9127 50.915 36.8727 50.955C36.8427 50.985 36.8027 51 36.7527 51H35.3727C35.3227 51 35.2777 50.985 35.2377 50.955C35.2077 50.915 35.1927 50.87 35.1927 50.82V40.665C35.1927 40.615 35.2077 40.575 35.2377 40.545C35.2777 40.505 35.3227 40.485 35.3727 40.485H38.1927ZM37.9077 45.21C38.2777 45.21 38.5727 45.07 38.7927 44.79C39.0227 44.5 39.1377 44.11 39.1377 43.62C39.1377 43.12 39.0227 42.725 38.7927 42.435C38.5727 42.135 38.2777 41.985 37.9077 41.985H37.0077C36.9577 41.985 36.9327 42.01 36.9327 42.06V45.135C36.9327 45.185 36.9577 45.21 37.0077 45.21H37.9077ZM48.4981 41.82C48.4981 41.87 48.4781 41.915 48.4381 41.955C48.4081 41.985 48.3681 42 48.3181 42H45.0781C45.0281 42 45.0031 42.025 45.0031 42.075V44.91C45.0031 44.96 45.0281 44.985 45.0781 44.985H46.9981C47.0481 44.985 47.0881 45.005 47.1181 45.045C47.1581 45.075 47.1781 45.115 47.1781 45.165V46.32C47.1781 46.37 47.1581 46.415 47.1181 46.455C47.0881 46.485 47.0481 46.5 46.9981 46.5H45.0781C45.0281 46.5 45.0031 46.525 45.0031 46.575V49.425C45.0031 49.475 45.0281 49.5 45.0781 49.5H48.3181C48.3681 49.5 48.4081 49.52 48.4381 49.56C48.4781 49.59 48.4981 49.63 48.4981 49.68V50.82C48.4981 50.87 48.4781 50.915 48.4381 50.955C48.4081 50.985 48.3681 51 48.3181 51H43.4431C43.3931 51 43.3481 50.985 43.3081 50.955C43.2781 50.915 43.2631 50.87 43.2631 50.82V40.68C43.2631 40.63 43.2781 40.59 43.3081 40.56C43.3481 40.52 43.3931 40.5 43.4431 40.5H48.3181C48.3681 40.5 48.4081 40.52 48.4381 40.56C48.4781 40.59 48.4981 40.63 48.4981 40.68V41.82ZM55.1367 51C55.0367 51 54.9717 50.95 54.9417 50.85L53.6667 46.545C53.6467 46.505 53.6217 46.485 53.5917 46.485H52.7967C52.7467 46.485 52.7217 46.51 52.7217 46.56V50.82C52.7217 50.87 52.7017 50.915 52.6617 50.955C52.6317 50.985 52.5917 51 52.5417 51H51.1617C51.1117 51 51.0667 50.985 51.0267 50.955C50.9967 50.915 50.9817 50.87 50.9817 50.82V40.68C50.9817 40.63 50.9967 40.59 51.0267 40.56C51.0667 40.52 51.1117 40.5 51.1617 40.5H53.9817C54.5117 40.5 54.9767 40.63 55.3767 40.89C55.7867 41.14 56.1017 41.5 56.3217 41.97C56.5517 42.43 56.6667 42.96 56.6667 43.56C56.6667 44.18 56.5467 44.715 56.3067 45.165C56.0667 45.615 55.7317 45.955 55.3017 46.185C55.2617 46.195 55.2467 46.225 55.2567 46.275L56.7267 50.79C56.7367 50.81 56.7417 50.835 56.7417 50.865C56.7417 50.955 56.6867 51 56.5767 51H55.1367ZM52.7967 42C52.7467 42 52.7217 42.025 52.7217 42.075V45.06C52.7217 45.11 52.7467 45.135 52.7967 45.135H53.7117C54.0717 45.135 54.3617 44.995 54.5817 44.715C54.8117 44.435 54.9267 44.055 54.9267 43.575C54.9267 43.095 54.8117 42.715 54.5817 42.435C54.3617 42.145 54.0717 42 53.7117 42H52.7967ZM64.3157 41.82C64.3157 41.87 64.2957 41.915 64.2557 41.955C64.2257 41.985 64.1857 42 64.1357 42H60.9107C60.8607 42 60.8357 42.025 60.8357 42.075V44.91C60.8357 44.96 60.8607 44.985 60.9107 44.985H62.8157C62.8657 44.985 62.9057 45.005 62.9357 45.045C62.9757 45.075 62.9957 45.115 62.9957 45.165V46.32C62.9957 46.37 62.9757 46.415 62.9357 46.455C62.9057 46.485 62.8657 46.5 62.8157 46.5H60.9107C60.8607 46.5 60.8357 46.525 60.8357 46.575V50.82C60.8357 50.87 60.8157 50.915 60.7757 50.955C60.7457 50.985 60.7057 51 60.6557 51H59.2757C59.2257 51 59.1807 50.985 59.1407 50.955C59.1107 50.915 59.0957 50.87 59.0957 50.82V40.68C59.0957 40.63 59.1107 40.59 59.1407 40.56C59.1807 40.52 59.2257 40.5 59.2757 40.5H64.1357C64.1857 40.5 64.2257 40.52 64.2557 40.56C64.2957 40.59 64.3157 40.63 64.3157 40.68V41.82ZM71.7563 41.82C71.7563 41.87 71.7363 41.915 71.6963 41.955C71.6663 41.985 71.6263 42 71.5763 42H68.3363C68.2863 42 68.2613 42.025 68.2613 42.075V44.91C68.2613 44.96 68.2863 44.985 68.3363 44.985H70.2563C70.3063 44.985 70.3463 45.005 70.3763 45.045C70.4163 45.075 70.4363 45.115 70.4363 45.165V46.32C70.4363 46.37 70.4163 46.415 70.3763 46.455C70.3463 46.485 70.3063 46.5 70.2563 46.5H68.3363C68.2863 46.5 68.2613 46.525 68.2613 46.575V49.425C68.2613 49.475 68.2863 49.5 68.3363 49.5H71.5763C71.6263 49.5 71.6663 49.52 71.6963 49.56C71.7363 49.59 71.7563 49.63 71.7563 49.68V50.82C71.7563 50.87 71.7363 50.915 71.6963 50.955C71.6663 50.985 71.6263 51 71.5763 51H66.7013C66.6513 51 66.6063 50.985 66.5663 50.955C66.5363 50.915 66.5213 50.87 66.5213 50.82V40.68C66.5213 40.63 66.5363 40.59 66.5663 40.56C66.6063 40.52 66.6513 40.5 66.7013 40.5H71.5763C71.6263 40.5 71.6663 40.52 71.6963 40.56C71.7363 40.59 71.7563 40.63 71.7563 40.68V41.82ZM74.4199 51C74.3699 51 74.3249 50.985 74.2849 50.955C74.2549 50.915 74.2399 50.87 74.2399 50.82V40.68C74.2399 40.63 74.2549 40.59 74.2849 40.56C74.3249 40.52 74.3699 40.5 74.4199 40.5H75.7999C75.8499 40.5 75.8899 40.52 75.9199 40.56C75.9599 40.59 75.9799 40.63 75.9799 40.68V50.82C75.9799 50.87 75.9599 50.915 75.9199 50.955C75.8899 50.985 75.8499 51 75.7999 51H74.4199ZM84.1794 40.5C84.2294 40.5 84.2694 40.52 84.2994 40.56C84.3394 40.59 84.3594 40.63 84.3594 40.68V41.82C84.3594 41.87 84.3394 41.915 84.2994 41.955C84.2694 41.985 84.2294 42 84.1794 42H82.2744C82.2244 42 82.1994 42.025 82.1994 42.075V50.82C82.1994 50.87 82.1794 50.915 82.1394 50.955C82.1094 50.985 82.0694 51 82.0194 51H80.6394C80.5894 51 80.5444 50.985 80.5044 50.955C80.4744 50.915 80.4594 50.87 80.4594 50.82V42.075C80.4594 42.025 80.4344 42 80.3844 42H78.5844C78.5344 42 78.4894 41.985 78.4494 41.955C78.4194 41.915 78.4044 41.87 78.4044 41.82V40.68C78.4044 40.63 78.4194 40.59 78.4494 40.56C78.4894 40.52 78.5344 40.5 78.5844 40.5H84.1794ZM89.0954 51.12C88.2354 51.12 87.5404 50.86 87.0104 50.34C86.4904 49.82 86.2304 49.13 86.2304 48.27V43.23C86.2304 42.37 86.4904 41.68 87.0104 41.16C87.5404 40.64 88.2354 40.38 89.0954 40.38C89.9554 40.38 90.6504 40.64 91.1804 41.16C91.7104 41.68 91.9754 42.37 91.9754 43.23V48.27C91.9754 49.13 91.7104 49.82 91.1804 50.34C90.6504 50.86 89.9554 51.12 89.0954 51.12ZM89.0954 49.62C89.4354 49.62 89.7104 49.505 89.9204 49.275C90.1304 49.035 90.2354 48.725 90.2354 48.345V43.155C90.2354 42.775 90.1304 42.47 89.9204 42.24C89.7104 42 89.4354 41.88 89.0954 41.88C88.7554 41.88 88.4804 42 88.2704 42.24C88.0704 42.47 87.9704 42.775 87.9704 43.155V48.345C87.9704 48.725 88.0704 49.035 88.2704 49.275C88.4804 49.505 88.7554 49.62 89.0954 49.62ZM31.7778 58.485C32.3078 58.485 32.7728 58.615 33.1728 58.875C33.5828 59.135 33.8978 59.5 34.1178 59.97C34.3478 60.44 34.4628 60.975 34.4628 61.575C34.4628 62.475 34.2228 63.2 33.7428 63.75C33.2728 64.3 32.6478 64.575 31.8678 64.575H30.5928C30.5428 64.575 30.5178 64.6 30.5178 64.65V68.82C30.5178 68.87 30.4978 68.915 30.4578 68.955C30.4278 68.985 30.3878 69 30.3378 69H28.9578C28.9078 69 28.8628 68.985 28.8228 68.955C28.7928 68.915 28.7778 68.87 28.7778 68.82V58.665C28.7778 58.615 28.7928 58.575 28.8228 58.545C28.8628 58.505 28.9078 58.485 28.9578 58.485H31.7778ZM31.4928 63.21C31.8628 63.21 32.1578 63.07 32.3778 62.79C32.6078 62.5 32.7228 62.11 32.7228 61.62C32.7228 61.12 32.6078 60.725 32.3778 60.435C32.1578 60.135 31.8628 59.985 31.4928 59.985H30.5928C30.5428 59.985 30.5178 60.01 30.5178 60.06V63.135C30.5178 63.185 30.5428 63.21 30.5928 63.21H31.4928ZM40.6395 69C40.5195 69 40.4545 68.945 40.4445 68.835L40.1595 67.26C40.1595 67.21 40.1295 67.185 40.0695 67.185H37.8795C37.8195 67.185 37.7895 67.21 37.7895 67.26L37.5045 68.835C37.4945 68.945 37.4295 69 37.3095 69H35.9445C35.8045 69 35.7495 68.935 35.7795 68.805L37.9995 58.665C38.0195 58.555 38.0845 58.5 38.1945 58.5H39.7845C39.8945 58.5 39.9595 58.555 39.9795 58.665L42.1995 68.805V68.865C42.1995 68.955 42.1445 69 42.0345 69H40.6395ZM38.0595 65.745C38.0495 65.795 38.0745 65.82 38.1345 65.82H39.7995C39.8595 65.82 39.8845 65.795 39.8745 65.745L39.0045 61.005C38.9945 60.975 38.9795 60.96 38.9595 60.96C38.9395 60.96 38.9245 60.975 38.9145 61.005L38.0595 65.745ZM48.5754 69C48.4753 69 48.4103 68.95 48.3803 68.85L47.1053 64.545C47.0853 64.505 47.0603 64.485 47.0303 64.485H46.2353C46.1853 64.485 46.1603 64.51 46.1603 64.56V68.82C46.1603 68.87 46.1403 68.915 46.1003 68.955C46.0703 68.985 46.0303 69 45.9803 69H44.6003C44.5503 69 44.5053 68.985 44.4653 68.955C44.4353 68.915 44.4203 68.87 44.4203 68.82V58.68C44.4203 58.63 44.4353 58.59 44.4653 58.56C44.5053 58.52 44.5503 58.5 44.6003 58.5H47.4203C47.9503 58.5 48.4153 58.63 48.8153 58.89C49.2253 59.14 49.5403 59.5 49.7604 59.97C49.9904 60.43 50.1054 60.96 50.1054 61.56C50.1054 62.18 49.9853 62.715 49.7453 63.165C49.5053 63.615 49.1703 63.955 48.7403 64.185C48.7003 64.195 48.6854 64.225 48.6953 64.275L50.1653 68.79C50.1753 68.81 50.1804 68.835 50.1804 68.865C50.1804 68.955 50.1253 69 50.0153 69H48.5754ZM46.2353 60C46.1853 60 46.1603 60.025 46.1603 60.075V63.06C46.1603 63.11 46.1853 63.135 46.2353 63.135H47.1503C47.5103 63.135 47.8003 62.995 48.0203 62.715C48.2503 62.435 48.3653 62.055 48.3653 61.575C48.3653 61.095 48.2503 60.715 48.0203 60.435C47.8003 60.145 47.5103 60 47.1503 60H46.2353ZM56.9116 69C56.7916 69 56.7266 68.945 56.7166 68.835L56.4316 67.26C56.4316 67.21 56.4016 67.185 56.3416 67.185H54.1516C54.0916 67.185 54.0616 67.21 54.0616 67.26L53.7766 68.835C53.7666 68.945 53.7016 69 53.5816 69H52.2166C52.0766 69 52.0216 68.935 52.0516 68.805L54.2716 58.665C54.2916 58.555 54.3566 58.5 54.4666 58.5H56.0566C56.1666 58.5 56.2316 58.555 56.2516 58.665L58.4716 68.805V68.865C58.4716 68.955 58.4166 69 58.3066 69H56.9116ZM54.3316 65.745C54.3216 65.795 54.3466 65.82 54.4066 65.82H56.0716C56.1316 65.82 56.1566 65.795 56.1466 65.745L55.2766 61.005C55.2666 60.975 55.2516 60.96 55.2316 60.96C55.2116 60.96 55.1966 60.975 55.1866 61.005L54.3316 65.745ZM67.5804 69.12C66.7204 69.12 66.0254 68.86 65.4954 68.34C64.9754 67.82 64.7154 67.13 64.7154 66.27V61.23C64.7154 60.37 64.9754 59.68 65.4954 59.16C66.0254 58.64 66.7204 58.38 67.5804 58.38C68.4404 58.38 69.1354 58.64 69.6654 59.16C70.1954 59.68 70.4604 60.37 70.4604 61.23V66.27C70.4604 67.13 70.1954 67.82 69.6654 68.34C69.1354 68.86 68.4404 69.12 67.5804 69.12ZM67.5804 67.62C67.9204 67.62 68.1954 67.505 68.4054 67.275C68.6154 67.035 68.7204 66.725 68.7204 66.345V61.155C68.7204 60.775 68.6154 60.47 68.4054 60.24C68.1954 60 67.9204 59.88 67.5804 59.88C67.2404 59.88 66.9654 60 66.7554 60.24C66.5554 60.47 66.4554 60.775 66.4554 61.155V66.345C66.4554 66.725 66.5554 67.035 66.7554 67.275C66.9654 67.505 67.2404 67.62 67.5804 67.62ZM79.7752 69.12C78.9452 69.12 78.2752 68.87 77.7652 68.37C77.2552 67.87 77.0002 67.215 77.0002 66.405V66.015C77.0002 65.965 77.0152 65.925 77.0452 65.895C77.0852 65.855 77.1302 65.835 77.1802 65.835H78.5452C78.5952 65.835 78.6352 65.855 78.6652 65.895C78.7052 65.925 78.7252 65.965 78.7252 66.015V66.315C78.7252 66.705 78.8202 67.02 79.0102 67.26C79.2102 67.5 79.4652 67.62 79.7752 67.62C80.0852 67.62 80.3402 67.51 80.5402 67.29C80.7402 67.06 80.8402 66.76 80.8402 66.39C80.8402 66.13 80.7852 65.905 80.6752 65.715C80.5652 65.525 80.4102 65.345 80.2102 65.175C80.0102 65.005 79.6902 64.76 79.2502 64.44C78.7502 64.08 78.3452 63.76 78.0352 63.48C77.7352 63.2 77.4802 62.865 77.2702 62.475C77.0702 62.075 76.9702 61.615 76.9702 61.095C76.9702 60.265 77.2202 59.605 77.7202 59.115C78.2202 58.625 78.8802 58.38 79.7002 58.38C80.5302 58.38 81.2002 58.64 81.7102 59.16C82.2202 59.67 82.4752 60.35 82.4752 61.2V61.56C82.4752 61.61 82.4552 61.655 82.4152 61.695C82.3852 61.725 82.3452 61.74 82.2952 61.74H80.9452C80.8952 61.74 80.8502 61.725 80.8102 61.695C80.7802 61.655 80.7652 61.61 80.7652 61.56V61.17C80.7652 60.78 80.6652 60.47 80.4652 60.24C80.2752 60 80.0202 59.88 79.7002 59.88C79.4002 59.88 79.1552 59.99 78.9652 60.21C78.7752 60.42 78.6802 60.715 78.6802 61.095C78.6802 61.455 78.7802 61.76 78.9802 62.01C79.1902 62.26 79.5952 62.605 80.1952 63.045C80.8052 63.495 81.2652 63.865 81.5752 64.155C81.8852 64.435 82.1252 64.745 82.2952 65.085C82.4652 65.425 82.5502 65.83 82.5502 66.3C82.5502 67.15 82.2952 67.835 81.7852 68.355C81.2752 68.865 80.6052 69.12 79.7752 69.12ZM90.1805 59.82C90.1805 59.87 90.1605 59.915 90.1205 59.955C90.0905 59.985 90.0505 60 90.0005 60H86.7605C86.7105 60 86.6855 60.025 86.6855 60.075V62.91C86.6855 62.96 86.7105 62.985 86.7605 62.985H88.6805C88.7305 62.985 88.7705 63.005 88.8005 63.045C88.8405 63.075 88.8605 63.115 88.8605 63.165V64.32C88.8605 64.37 88.8405 64.415 88.8005 64.455C88.7705 64.485 88.7305 64.5 88.6805 64.5H86.7605C86.7105 64.5 86.6855 64.525 86.6855 64.575V67.425C86.6855 67.475 86.7105 67.5 86.7605 67.5H90.0005C90.0505 67.5 90.0905 67.52 90.1205 67.56C90.1605 67.59 90.1805 67.63 90.1805 67.68V68.82C90.1805 68.87 90.1605 68.915 90.1205 68.955C90.0905 68.985 90.0505 69 90.0005 69H85.1255C85.0755 69 85.0305 68.985 84.9905 68.955C84.9605 68.915 84.9455 68.87 84.9455 68.82V58.68C84.9455 58.63 84.9605 58.59 84.9905 58.56C85.0305 58.52 85.0755 58.5 85.1255 58.5H90.0005C90.0505 58.5 90.0905 58.52 90.1205 58.56C90.1605 58.59 90.1805 58.63 90.1805 58.68V59.82ZM95.4391 69.12C94.5791 69.12 93.8891 68.845 93.3691 68.295C92.8591 67.735 92.6041 67 92.6041 66.09V58.68C92.6041 58.63 92.6191 58.59 92.6491 58.56C92.6891 58.52 92.7341 58.5 92.7841 58.5H94.1641C94.2141 58.5 94.2541 58.52 94.2841 58.56C94.3241 58.59 94.3441 58.63 94.3441 58.68V66.27C94.3441 66.67 94.4441 66.995 94.6441 67.245C94.8441 67.495 95.1091 67.62 95.4391 67.62C95.7691 67.62 96.0341 67.495 96.2341 67.245C96.4341 66.995 96.5341 66.67 96.5341 66.27V58.68C96.5341 58.63 96.5491 58.59 96.5791 58.56C96.6191 58.52 96.6641 58.5 96.7141 58.5H98.0941C98.1441 58.5 98.1841 58.52 98.2141 58.56C98.2541 58.59 98.2741 58.63 98.2741 58.68V66.09C98.2741 67 98.0141 67.735 97.4941 68.295C96.9741 68.845 96.2891 69.12 95.4391 69.12ZM50.8159 84.12C50.8159 85.04 50.5459 85.75 50.0059 86.25C49.4759 86.75 48.7809 87 47.9209 87H45.2809C45.2309 87 45.1859 86.985 45.1459 86.955C45.1159 86.915 45.1009 86.87 45.1009 86.82V76.68C45.1009 76.63 45.1159 76.59 45.1459 76.56C45.1859 76.52 45.2309 76.5 45.2809 76.5H47.6509C48.6009 76.5 49.3459 76.74 49.8859 77.22C50.4259 77.7 50.6959 78.4 50.6959 79.32C50.6959 80.35 50.3309 81.085 49.6009 81.525C49.5509 81.555 49.5409 81.585 49.5709 81.615C49.9609 81.865 50.2659 82.2 50.4859 82.62C50.7059 83.04 50.8159 83.54 50.8159 84.12ZM46.9159 78C46.8659 78 46.8409 78.025 46.8409 78.075V80.865C46.8409 80.915 46.8659 80.94 46.9159 80.94H47.6809C48.0909 80.94 48.4109 80.815 48.6409 80.565C48.8709 80.315 48.9859 79.96 48.9859 79.5C48.9859 79.02 48.8709 78.65 48.6409 78.39C48.4109 78.13 48.0909 78 47.6809 78H46.9159ZM47.7859 85.485C48.1859 85.485 48.5009 85.345 48.7309 85.065C48.9609 84.785 49.0759 84.39 49.0759 83.88C49.0759 83.36 48.9609 82.955 48.7309 82.665C48.5009 82.365 48.1859 82.215 47.7859 82.215H46.9159C46.8659 82.215 46.8409 82.24 46.8409 82.29V85.41C46.8409 85.46 46.8659 85.485 46.9159 85.485H47.7859ZM55.9146 87.12C55.0546 87.12 54.3596 86.86 53.8296 86.34C53.3096 85.82 53.0496 85.13 53.0496 84.27V79.23C53.0496 78.37 53.3096 77.68 53.8296 77.16C54.3596 76.64 55.0546 76.38 55.9146 76.38C56.7746 76.38 57.4696 76.64 57.9996 77.16C58.5296 77.68 58.7946 78.37 58.7946 79.23V84.27C58.7946 85.13 58.5296 85.82 57.9996 86.34C57.4696 86.86 56.7746 87.12 55.9146 87.12ZM55.9146 85.62C56.2546 85.62 56.5296 85.505 56.7396 85.275C56.9496 85.035 57.0546 84.725 57.0546 84.345V79.155C57.0546 78.775 56.9496 78.47 56.7396 78.24C56.5296 78 56.2546 77.88 55.9146 77.88C55.5746 77.88 55.2996 78 55.0896 78.24C54.8896 78.47 54.7896 78.775 54.7896 79.155V84.345C54.7896 84.725 54.8896 85.035 55.0896 85.275C55.2996 85.505 55.5746 85.62 55.9146 85.62ZM61.6116 87C61.5616 87 61.5166 86.985 61.4766 86.955C61.4466 86.915 61.4316 86.87 61.4316 86.82V76.68C61.4316 76.63 61.4466 76.59 61.4766 76.56C61.5166 76.52 61.5616 76.5 61.6116 76.5H62.9916C63.0416 76.5 63.0816 76.52 63.1116 76.56C63.1516 76.59 63.1716 76.63 63.1716 76.68V85.425C63.1716 85.475 63.1966 85.5 63.2466 85.5H66.4866C66.5366 85.5 66.5766 85.52 66.6066 85.56C66.6466 85.59 66.6666 85.63 66.6666 85.68V86.82C66.6666 86.87 66.6466 86.915 66.6066 86.955C66.5766 86.985 66.5366 87 66.4866 87H61.6116ZM71.2882 87.12C70.4582 87.12 69.7882 86.87 69.2782 86.37C68.7682 85.87 68.5132 85.215 68.5132 84.405V84.015C68.5132 83.965 68.5282 83.925 68.5582 83.895C68.5982 83.855 68.6432 83.835 68.6932 83.835H70.0582C70.1082 83.835 70.1482 83.855 70.1782 83.895C70.2182 83.925 70.2382 83.965 70.2382 84.015V84.315C70.2382 84.705 70.3332 85.02 70.5232 85.26C70.7232 85.5 70.9782 85.62 71.2882 85.62C71.5982 85.62 71.8532 85.51 72.0532 85.29C72.2532 85.06 72.3532 84.76 72.3532 84.39C72.3532 84.13 72.2982 83.905 72.1882 83.715C72.0782 83.525 71.9232 83.345 71.7232 83.175C71.5232 83.005 71.2032 82.76 70.7632 82.44C70.2632 82.08 69.8582 81.76 69.5482 81.48C69.2482 81.2 68.9932 80.865 68.7832 80.475C68.5832 80.075 68.4832 79.615 68.4832 79.095C68.4832 78.265 68.7332 77.605 69.2332 77.115C69.7332 76.625 70.3932 76.38 71.2132 76.38C72.0432 76.38 72.7132 76.64 73.2232 77.16C73.7332 77.67 73.9882 78.35 73.9882 79.2V79.56C73.9882 79.61 73.9682 79.655 73.9282 79.695C73.8982 79.725 73.8582 79.74 73.8082 79.74H72.4582C72.4082 79.74 72.3632 79.725 72.3232 79.695C72.2932 79.655 72.2782 79.61 72.2782 79.56V79.17C72.2782 78.78 72.1782 78.47 71.9782 78.24C71.7882 78 71.5332 77.88 71.2132 77.88C70.9132 77.88 70.6682 77.99 70.4782 78.21C70.2882 78.42 70.1932 78.715 70.1932 79.095C70.1932 79.455 70.2932 79.76 70.4932 80.01C70.7032 80.26 71.1082 80.605 71.7082 81.045C72.3182 81.495 72.7782 81.865 73.0882 82.155C73.3982 82.435 73.6382 82.745 73.8082 83.085C73.9782 83.425 74.0632 83.83 74.0632 84.3C74.0632 85.15 73.8082 85.835 73.2982 86.355C72.7882 86.865 72.1182 87.12 71.2882 87.12ZM79.2021 87.12C78.3421 87.12 77.6471 86.86 77.1171 86.34C76.5971 85.82 76.3371 85.13 76.3371 84.27V79.23C76.3371 78.37 76.5971 77.68 77.1171 77.16C77.6471 76.64 78.3421 76.38 79.2021 76.38C80.0621 76.38 80.7571 76.64 81.2871 77.16C81.8171 77.68 82.0821 78.37 82.0821 79.23V84.27C82.0821 85.13 81.8171 85.82 81.2871 86.34C80.7571 86.86 80.0621 87.12 79.2021 87.12ZM79.2021 85.62C79.5421 85.62 79.8171 85.505 80.0271 85.275C80.2371 85.035 80.3421 84.725 80.3421 84.345V79.155C80.3421 78.775 80.2371 78.47 80.0271 78.24C79.8171 78 79.5421 77.88 79.2021 77.88C78.8621 77.88 78.5871 78 78.3771 78.24C78.1771 78.47 78.0771 78.775 78.0771 79.155V84.345C78.0771 84.725 78.1771 85.035 78.3771 85.275C78.5871 85.505 78.8621 85.62 79.2021 85.62Z" fill="white"/>
</svg>
