<svg width="251" height="201" viewBox="0 0 251 201" fill="none" xmlns="http://www.w3.org/2000/svg">
<path d="M250.083 75.583V162.791C250.083 172.704 246.145 182.21 239.136 189.219C232.127 196.229 222.621 200.166 212.708 200.166H38.2915C28.379 200.166 18.8726 196.229 11.8634 189.219C4.85422 182.21 0.916504 172.704 0.916504 162.791V75.583H250.083ZM200.25 125.416H162.875C159.571 125.416 156.402 126.729 154.065 129.065C151.729 131.402 150.417 134.571 150.417 137.875C150.417 141.179 151.729 144.348 154.065 146.684C156.402 149.02 159.571 150.333 162.875 150.333H200.25C203.554 150.333 206.723 149.02 209.059 146.684C211.396 144.348 212.708 141.179 212.708 137.875C212.708 134.571 211.396 131.402 209.059 129.065C206.723 126.729 203.554 125.416 200.25 125.416ZM212.708 0.833008C222.621 0.833008 232.127 4.77072 239.136 11.7799C246.145 18.7891 250.083 28.2955 250.083 38.208V50.6663H0.916504V38.208C0.916504 28.2955 4.85422 18.7891 11.8634 11.7799C18.8726 4.77072 28.379 0.833008 38.2915 0.833008H212.708Z" fill="#555555"/>
</svg>
